<?xml version="1.0" encoding="UTF-8"?> <svg xmlns="http://www.w3.org/2000/svg" id="JST_x5F_Logo" viewBox="0 0 185.81 196.07"><defs><style> .cls-1 { fill: #004899; } .cls-2 { fill: #fff; } .cls-3 { fill: #e3051b; } </style></defs><rect class="cls-1" width="185.81" height="196.07"></rect><g><g><path class="cls-2" d="M24.07,157.18h12.33v3.18h-7.72v2.37h7.16v3.04h-7.16v2.93h7.94v3.37h-12.55v-14.88Z"></path><path class="cls-2" d="M52.31,169.89c.58.4.95.65,1.13.75.26.15.62.32,1.07.52l-1.28,2.58c-.64-.31-1.28-.68-1.91-1.11-.63-.43-1.07-.75-1.32-.97-1.02.44-2.29.66-3.82.66-2.26,0-4.04-.59-5.35-1.77-1.54-1.39-2.31-3.35-2.31-5.88s.68-4.35,2.03-5.71c1.35-1.36,3.24-2.04,5.66-2.04s4.38.66,5.72,1.99c1.34,1.33,2.02,3.23,2.02,5.7,0,2.2-.54,3.96-1.62,5.28ZM48.79,167.53c.37-.66.55-1.64.55-2.94,0-1.5-.28-2.58-.84-3.22-.56-.64-1.33-.96-2.31-.96-.91,0-1.65.33-2.22.99-.57.66-.85,1.68-.85,3.08,0,1.62.28,2.77.83,3.42s1.32.98,2.28.98c.31,0,.61-.03.88-.09-.39-.37-1-.72-1.83-1.06l.72-1.65c.41.07.72.17.95.27.23.11.67.39,1.32.85.16.11.32.22.51.33Z"></path><path class="cls-2" d="M66.1,157.18h4.59v8.87c0,.88-.14,1.71-.41,2.49s-.7,1.46-1.29,2.05c-.59.58-1.2,1-1.84,1.23-.89.33-1.97.5-3.22.5-.72,0-1.51-.05-2.37-.15-.86-.1-1.57-.3-2.15-.6-.58-.3-1.1-.73-1.58-1.28-.48-.55-.8-1.13-.98-1.71-.28-.95-.43-1.79-.43-2.52v-8.87h4.59v9.08c0,.81.23,1.45.68,1.9.45.46,1.07.68,1.87.68s1.41-.22,1.86-.67c.45-.45.68-1.09.68-1.91v-9.08Z"></path><path class="cls-2" d="M73.92,157.18h4.61v14.88h-4.61v-14.88Z"></path><path class="cls-2" d="M81.81,157.18h7.65c1.67,0,2.91.4,3.74,1.19s1.24,1.92,1.24,3.38-.45,2.68-1.35,3.52-2.28,1.27-4.14,1.27h-2.52v5.52h-4.62v-14.88ZM86.43,163.52h1.13c.89,0,1.51-.15,1.87-.46.36-.31.54-.7.54-1.18s-.16-.86-.47-1.19-.9-.49-1.76-.49h-1.31v3.32Z"></path><path class="cls-2" d="M96.79,157.18h6.05l2.33,9.06,2.32-9.06h6.05v14.88h-3.77v-11.35l-2.9,11.35h-3.41l-2.9-11.35v11.35h-3.77v-14.88Z"></path><path class="cls-2" d="M116.46,157.18h12.33v3.18h-7.72v2.37h7.16v3.04h-7.16v2.93h7.94v3.37h-12.55v-14.88Z"></path><path class="cls-2" d="M131.52,157.18h4.29l5.6,8.23v-8.23h4.34v14.88h-4.34l-5.57-8.17v8.17h-4.32v-14.88Z"></path><path class="cls-2" d="M147.76,157.18h13.98v3.68h-4.69v11.21h-4.6v-11.21h-4.69v-3.68Z"></path><path class="cls-2" d="M24.07,124.9h12.76c2.78,0,4.86.66,6.24,1.98,1.38,1.32,2.08,3.2,2.08,5.64s-.75,4.47-2.26,5.88c-1.51,1.41-3.81,2.12-6.9,2.12h-4.2v9.22h-7.71v-24.83ZM31.78,135.49h1.88c1.48,0,2.52-.26,3.12-.77.6-.51.9-1.17.9-1.97s-.26-1.44-.78-1.98c-.52-.54-1.5-.81-2.93-.81h-2.19v5.54Z"></path><path class="cls-2" d="M48.19,137.33c0-4.05,1.13-7.21,3.39-9.47,2.26-2.26,5.4-3.39,9.44-3.39s7.32,1.11,9.55,3.33,3.35,5.33,3.35,9.33c0,2.9-.49,5.28-1.47,7.14-.98,1.86-2.39,3.3-4.23,4.34-1.85,1.03-4.15,1.55-6.9,1.55s-5.12-.45-6.95-1.34c-1.84-.89-3.32-2.3-4.46-4.23-1.14-1.93-1.71-4.35-1.71-7.25ZM55.87,137.37c0,2.51.47,4.31,1.4,5.4s2.2,1.64,3.8,1.64,2.92-.54,3.83-1.61c.9-1.07,1.36-3,1.36-5.78,0-2.34-.47-4.05-1.41-5.12-.94-1.08-2.22-1.62-3.84-1.62s-2.79.55-3.73,1.64c-.94,1.1-1.41,2.91-1.41,5.44Z"></path><path class="cls-2" d="M74.91,124.9h7.29l2.62,13.9,3.84-13.9h7.26l3.85,13.88,2.63-13.88h7.25l-5.47,24.83h-7.52l-4.36-15.64-4.34,15.64h-7.53l-5.53-24.83Z"></path><path class="cls-2" d="M112.14,124.9h20.57v5.3h-12.87v3.95h11.94v5.07h-11.94v4.9h13.25v5.62h-20.94v-24.83Z"></path><path class="cls-2" d="M137.31,149.74v-24.83h12.79c2.37,0,4.18.2,5.44.61s2.26,1.16,3.03,2.26c.77,1.1,1.15,2.44,1.15,4.02,0,1.38-.29,2.57-.88,3.57-.59,1-1.4,1.81-2.42,2.43-.66.4-1.55.72-2.69.98.91.31,1.58.61,2,.92.28.2.71.51,1.24,1.17.54.67.88,1.31,1.06,1.68l3.72,7.2h-8.67l-4.1-7.59c-.52-.98-.98-1.62-1.39-1.91-.55-.38-1.18-.58-1.88-.58h-.68v10.08h-7.71ZM145.02,134.96h3.24c.35,0,.97.03,1.95-.26.56-.19,1-.44,1.33-.86.32-.42.48-.9.48-1.44,0-.8-.25-1.42-.76-1.85s-1.46-.64-2.86-.64h-3.37v5.05Z"></path></g><g><path class="cls-1" d="M36.19,88.42c.41-.17.82-.34,1.24-.5.5-.2,1.03-.38,1.54-.58.43-.16.86-.32,1.31-.48.54-.19,1.09-.36,1.64-.54.45-.15.9-.3,1.36-.44.25-.08.51-.15.76-.23-.84-.96-1.55-2.07-2.14-3.32-1.14-2.44-1.82-5.48-2.02-9.03l-.05-.89,12.68-2.13v1.17c.02,1.86.15,3.25.39,4.11.21.78.56,1.38,1.05,1.84.22.2.61.3,1.13.3.87,0,1.44-.36,1.85-1.17.35-.68.76-2.16.76-5.32v-3.85H24.35c.29,7.65,3.97,15.06,10.69,21.52.37-.16.77-.31,1.15-.47Z"></path><path class="cls-1" d="M75.28,73.17l.07-.85,12.41-.96.1.96c.21,1.96.63,3.45,1.25,4.43.71,1.12,1.63,1.81,2.79,2.09v-7.87c-.3-.09-.6-.18-.94-.27-3.26-.9-5.93-2.02-8.01-3.34h-12.09v.61c0,5.14-.38,9.13-1.13,11.85-.08.29-.17.56-.27.84.76-.09,1.52-.17,2.28-.25.56-.06,1.13-.1,1.69-.15.77-.07,1.53-.14,2.31-.21.28-.02.56-.04.85-.06-1.1-2.7-1.44-5.25-1.31-6.81Z"></path><path class="cls-1" d="M135.52,83.95c.2.05.4.09.6.14.48.12.94.24,1.41.37.63.16,1.26.32,1.87.49.47.13.93.27,1.39.41.59.17,1.18.34,1.75.52.46.14.91.29,1.36.44.55.18,1.1.36,1.64.54.44.15.87.32,1.31.48.52.19,1.04.38,1.54.58.42.16.83.34,1.24.5.38.16.78.31,1.15.47,6.72-6.46,10.4-13.87,10.69-21.52h-25.94v16.59Z"></path><path class="cls-1" d="M97.15,75.41c0-.9-.32-1.7-.97-2.43-.3-.34-.95-.79-2.28-1.33v7.28c.95-.11,1.69-.44,2.23-1.01.69-.74,1.02-1.56,1.02-2.52Z"></path><path class="cls-1" d="M122.39,67.36h-13.6c.76,1.87,1.17,3.92,1.17,6.14s-.39,4.44-1.17,6.46c.42.03.85.06,1.27.09.78.06,1.54.14,2.31.21.56.05,1.13.1,1.7.15.81.08,1.6.17,2.4.26.51.06,1.02.11,1.53.17.88.11,1.74.23,2.61.35.41.06.82.11,1.23.16.19.03.38.06.57.09v-14.08Z"></path><path class="cls-2" d="M163.45,65.36c-.3-8.32-4.27-16.29-11.55-23.2h.03s-1.17-1.05-1.17-1.05c0,0,0,0-.01-.01l-.47-.42h-.02c-13.04-11.32-33.98-18.13-56.35-18.33v-.02h-2v.02c-22.37.2-43.31,7.01-56.35,18.34h-.02s-.47.41-.47.41c0,0,0,0-.01.01l-1.17,1.04h.03c-7.29,6.92-11.26,14.89-11.55,23.21h-.03v2h.03c.28,7.98,3.97,15.67,10.72,22.39h-.03s1.1,1.05,1.1,1.05l.48.45h.02c12.98,11.82,34.25,18.92,57.25,19.12v.02h2v-.02c22.99-.2,44.26-7.31,57.25-19.13h.02s.48-.44.48-.44l1.1-1.03h-.03c6.75-6.73,10.44-14.43,10.72-22.4h.03v-2h-.03ZM150.77,88.88c-.37-.16-.77-.31-1.15-.47-.41-.17-.82-.34-1.24-.5-.5-.2-1.03-.38-1.54-.58-.43-.16-.86-.32-1.31-.48-.54-.19-1.09-.36-1.64-.54-.45-.15-.9-.3-1.36-.44-.57-.18-1.16-.35-1.75-.52-.46-.14-.92-.27-1.39-.41-.61-.17-1.24-.33-1.87-.49-.47-.12-.93-.25-1.41-.37-.2-.05-.4-.09-.6-.14v-16.59h25.94c-.29,7.65-3.97,15.06-10.69,21.52ZM24.35,67.36h33.35v3.85c0,3.16-.42,4.64-.76,5.32-.41.81-.98,1.17-1.85,1.17-.53,0-.91-.11-1.13-.3-.49-.46-.83-1.07-1.05-1.84-.24-.86-.37-2.25-.38-4.11v-1.17s-12.69,2.13-12.69,2.13l.05.89c.2,3.55.88,6.59,2.02,9.03.58,1.25,1.3,2.36,2.14,3.32-.25.08-.51.15-.76.23-.46.14-.91.29-1.36.44-.55.18-1.1.36-1.64.54-.44.15-.87.32-1.31.48-.52.19-1.04.38-1.54.58-.42.16-.83.34-1.24.5-.38.16-.78.31-1.15.47-6.72-6.46-10.4-13.87-10.69-21.52ZM35.92,43.01c.37.15.75.29,1.13.44.42.17.84.34,1.27.5.5.19,1.02.37,1.53.55.43.15.86.31,1.3.46.54.18,1.1.35,1.65.53.44.14.87.28,1.32.42.58.18,1.19.34,1.79.51.44.12.88.25,1.33.37.64.17,1.29.33,1.94.5.43.11.86.22,1.3.33.71.17,1.45.33,2.18.49.4.09.78.18,1.18.27.88.19,1.78.36,2.68.54.27.05.52.11.79.16.13.02.26.04.38.07v16.23H24.35c.31-8,4.29-15.69,11.57-22.35ZM161.46,65.36h-25.94v-9.57h11.35v-11.61c.21-.08.41-.15.61-.23.43-.16.85-.33,1.27-.5.37-.15.76-.29,1.13-.44,7.28,6.65,11.27,14.35,11.57,22.35ZM133.52,87.28h-9.13v-33.5h-11.35v-8.98h31.84v8.98h-11.35v33.5ZM120.6,81.18c-.87-.12-1.73-.24-2.61-.35-.5-.06-1.02-.11-1.53-.17-.8-.09-1.59-.18-2.4-.26-.56-.06-1.13-.1-1.7-.15-.77-.07-1.53-.14-2.31-.21-.42-.03-.85-.06-1.27-.09.78-2.02,1.17-4.18,1.17-6.46s-.41-4.27-1.17-6.14h13.6v14.08c-.19-.03-.38-.06-.57-.09-.4-.06-.82-.11-1.23-.16ZM93.02,88.82c-4.76,0-8.63-1.58-11.51-4.71-3.03-3.29-4.16-7.5-4.25-9.94l8.74-.68c.28,1.83.75,3.25,1.43,4.32,1.34,2.1,3.27,3.16,5.76,3.16,1.87,0,3.35-.57,4.41-1.7,1.04-1.11,1.56-2.42,1.56-3.88s-.5-2.67-1.49-3.76c-.96-1.07-2.98-2.01-6.18-2.87-4.68-1.3-8.04-3.02-9.98-5.12-1.94-2.07-2.88-4.66-2.88-7.9,0-2.11.5-4.13,1.5-6.01.97-1.84,2.46-3.32,4.43-4.38,1.64-.88,4.42-1.94,8.38-1.94s7.45,1.12,9.87,3.24c2.03,1.78,3.33,4.6,3.86,8.41l-8.54.62c-.35-1.77-.97-3.08-1.88-4.01-1.08-1.1-2.57-1.66-4.41-1.66-1.57,0-2.8.44-3.64,1.32-.84.87-1.26,1.93-1.26,3.17,0,.97.37,1.85,1.06,2.58.68.76,2.02,1.37,4.22,1.94,4.75,1.26,8.17,2.54,10.18,3.81,1.94,1.22,3.36,2.74,4.23,4.52.89,1.82,1.34,3.88,1.34,6.14,0,2.67-.61,5.17-1.8,7.42-1.09,2.05-5.84,7.91-13.15,7.91ZM73.44,80.25c-.56.05-1.13.1-1.69.15-.77.08-1.53.17-2.28.25.09-.28.19-.56.27-.84.75-2.72,1.13-6.71,1.13-11.85v-.61h12.09c2.08,1.32,4.76,2.44,8.01,3.34.34.09.64.18.94.27v7.87c-1.16-.28-2.08-.97-2.79-2.09-.62-.98-1.04-2.47-1.25-4.43l-.1-.96-12.41.96-.07.85c-.13,1.56.21,4.11,1.31,6.81-.28.02-.56.04-.85.06-.78.06-1.54.14-2.31.21ZM63.72,85.51c-2.01,1.68-4.64,2.53-7.83,2.53-3.43,0-6.1-.56-7.93-1.68-1.82-1.1-3.25-2.75-4.25-4.89-.94-2.01-1.53-4.49-1.77-7.4l8.61-1.45c.06,1.48.2,2.62.43,3.46.31,1.13.85,2.06,1.62,2.78.61.55,1.45.83,2.49.83,1.62,0,2.88-.78,3.63-2.26.66-1.3.98-3.33.98-6.23v-26.4h9.16v23.17c0,4.96-.36,8.77-1.06,11.32-.67,2.44-2.04,4.53-4.08,6.23ZM73.85,51.3c.76.07,1.51.14,2.28.2.37.03.75.05,1.13.08-.4,1.35-.62,2.73-.62,4.16,0,3.72,1.15,6.84,3.41,9.27.11.12.24.23.36.35h-9.55v-14.35c.45.05.9.1,1.35.14.54.05,1.1.1,1.64.15ZM93.9,71.65c1.33.53,1.97.99,2.28,1.33.65.73.97,1.52.97,2.43,0,.96-.33,1.78-1.02,2.52-.54.58-1.28.9-2.23,1.01v-7.28ZM89.63,52.72c.28-.29.67-.48,1.16-.59.37,0,.74.01,1.11.02h0v4.71c-1.73-.52-2.27-.94-2.44-1.13-.36-.38-.53-.77-.53-1.22,0-.71.23-1.29.7-1.78ZM111.04,51.39v4.4h11.35v9.57h-14.59c-1.04-1.64-2.48-3.06-4.33-4.23-2.03-1.28-5.17-2.5-9.56-3.73v-4.96c.34.17.66.36.92.63.73.75,1.23,2.03,1.48,3.81l.13.93,12.45-.9-.1-1.02c-.15-1.56-.43-2.97-.81-4.27.57-.04,1.14-.08,1.71-.12.45-.04.9-.08,1.35-.12ZM148.2,41.54c-1.1.44-2.26.86-3.44,1.27h-33.72v6.58c-1.24.11-2.49.2-3.74.29-.78-1.84-1.84-3.36-3.16-4.52-2.59-2.27-6.12-3.53-10.23-3.7v-17.12c21.47.19,41.56,6.57,54.3,17.21ZM91.9,41.44c-3.07.14-5.92.87-8.3,2.15-2.32,1.25-4.09,3.01-5.25,5.21-.14.27-.25.55-.38.83-2.42-.17-4.79-.38-7.13-.63v-6.2h-13.16v4.29c-7.55-1.41-14.36-3.28-20.09-5.56,12.74-10.64,32.83-17.01,54.3-17.21v17.11ZM36.66,90.37c2.76-1.15,5.8-2.19,9.06-3.14.38.3.78.59,1.2.85,2.15,1.3,5.17,1.97,8.97,1.97s6.73-1.01,9.11-2.99c1.49-1.24,2.67-2.68,3.54-4.29,2.92-.35,5.92-.62,8.97-.84.67,1.22,1.49,2.43,2.53,3.55,2.99,3.25,7.08,5.06,11.87,5.3v17.61c-22.12-.2-42.56-6.88-55.25-18.02ZM93.9,90.78c7.77-.44,12.69-6.46,14-8.89,5.01.35,9.86.87,14.48,1.56v5.82h13.13v-3.27c5.02,1.23,9.61,2.69,13.63,4.36-12.68,11.14-33.13,17.82-55.25,18.02v-17.61Z"></path><path class="cls-1" d="M148.76,43.45c-.42.17-.84.34-1.27.5-.2.08-.41.15-.61.23v11.61h-11.35v9.57h25.94c-.31-8-4.29-15.69-11.57-22.35-.37.15-.75.29-1.13.44Z"></path><path class="cls-1" d="M108.78,55.89l.1,1.02-12.45.9-.13-.93c-.25-1.78-.75-3.06-1.48-3.81-.26-.27-.58-.47-.92-.63v4.96c4.39,1.23,7.53,2.45,9.56,3.73,1.85,1.16,3.3,2.58,4.33,4.23h14.59v-9.57h-11.35v-4.4c-.45.04-.9.08-1.35.12-.57.04-1.14.08-1.71.12.38,1.3.65,2.71.81,4.27Z"></path><path class="cls-1" d="M91.9,56.86v-4.71h0c-.37,0-.74-.01-1.11-.02-.48.11-.88.3-1.16.59-.47.49-.7,1.07-.7,1.78,0,.45.17.84.53,1.22.17.19.71.62,2.44,1.13Z"></path><path class="cls-1" d="M70.85,65.36h9.55c-.12-.12-.25-.23-.36-.35-2.26-2.42-3.41-5.54-3.41-9.27,0-1.43.22-2.82.62-4.16-.38-.03-.75-.05-1.13-.08-.76-.06-1.52-.13-2.28-.2-.55-.05-1.1-.09-1.64-.15-.45-.04-.9-.1-1.35-.14v14.35Z"></path><path class="cls-1" d="M57.7,49.13c-.13-.02-.26-.04-.38-.07-.27-.05-.53-.11-.79-.16-.9-.17-1.8-.35-2.68-.54-.4-.09-.79-.18-1.18-.27-.73-.16-1.46-.32-2.18-.49-.44-.11-.87-.22-1.3-.33-.65-.16-1.31-.32-1.94-.5-.45-.12-.88-.25-1.33-.37-.6-.17-1.2-.34-1.79-.51-.45-.14-.88-.28-1.32-.42-.55-.18-1.11-.35-1.65-.53-.44-.15-.87-.31-1.3-.46-.51-.18-1.03-.36-1.53-.55-.43-.16-.85-.33-1.27-.5-.37-.15-.76-.29-1.13-.44-7.28,6.65-11.27,14.35-11.57,22.35h33.35v-16.23Z"></path><path class="cls-1" d="M37.61,41.54c5.72,2.28,12.54,4.15,20.09,5.56v-4.29h13.16v6.2c2.34.25,4.71.46,7.13.63.13-.28.23-.56.38-.83,1.16-2.2,2.93-3.95,5.25-5.21,2.38-1.28,5.23-2.02,8.3-2.15v-17.11c-21.47.19-41.56,6.57-54.3,17.21Z"></path><path class="cls-1" d="M93.9,41.45c4.11.17,7.64,1.43,10.23,3.7,1.33,1.16,2.38,2.67,3.16,4.52,1.26-.08,2.51-.18,3.74-.29v-6.58h33.72c1.18-.41,2.34-.83,3.44-1.27-12.74-10.64-32.83-17.01-54.3-17.21v17.12Z"></path><path class="cls-1" d="M91.9,90.77c-4.78-.25-8.87-2.05-11.87-5.3-1.03-1.12-1.86-2.33-2.53-3.55-3.05.22-6.05.5-8.97.84-.87,1.61-2.05,3.04-3.54,4.29-2.38,1.99-5.44,2.99-9.11,2.99s-6.82-.66-8.97-1.97c-.42-.26-.82-.54-1.2-.85-3.25.95-6.3,1.99-9.06,3.14,12.68,11.14,33.13,17.82,55.25,18.02v-17.61Z"></path><path class="cls-1" d="M149.15,90.37c-4.02-1.67-8.61-3.13-13.63-4.36v3.27h-13.13v-5.82c-4.62-.69-9.47-1.21-14.48-1.56-1.31,2.43-6.24,8.45-14,8.89v17.61c22.11-.2,42.56-6.88,55.25-18.02Z"></path><path class="cls-3" d="M67.8,79.29c.7-2.55,1.06-6.36,1.06-11.32v-23.17h-9.16v26.4c0,2.89-.32,4.93-.98,6.23-.75,1.48-2.01,2.26-3.63,2.26-1.04,0-1.88-.28-2.49-.83-.77-.72-1.31-1.66-1.62-2.78-.23-.84-.37-1.98-.43-3.46l-8.61,1.45c.24,2.91.84,5.4,1.77,7.4,1,2.14,2.43,3.79,4.25,4.89,1.83,1.11,4.5,1.68,7.93,1.68,3.18,0,5.82-.85,7.83-2.53,2.03-1.7,3.41-3.79,4.08-6.23Z"></path><path class="cls-3" d="M107.97,73.49c0-2.26-.45-4.33-1.34-6.14-.87-1.78-2.29-3.3-4.23-4.52-2.01-1.26-5.44-2.55-10.18-3.81-2.2-.57-3.55-1.18-4.22-1.94-.7-.73-1.06-1.61-1.06-2.58,0-1.23.42-2.3,1.26-3.17.85-.88,2.07-1.32,3.64-1.32,1.84,0,3.33.56,4.41,1.66.9.92,1.52,2.24,1.88,4.01l8.54-.62c-.53-3.81-1.83-6.64-3.86-8.41-2.42-2.12-5.84-3.24-9.87-3.24s-6.75,1.06-8.38,1.94c-1.97,1.06-3.46,2.54-4.43,4.38-.99,1.88-1.5,3.9-1.5,6.01,0,3.25.94,5.83,2.88,7.9,1.95,2.1,5.3,3.82,9.98,5.12,3.2.87,5.22,1.81,6.18,2.87.99,1.1,1.49,2.36,1.49,3.76s-.52,2.78-1.56,3.88c-1.05,1.13-2.54,1.7-4.41,1.7-2.48,0-4.42-1.06-5.76-3.16-.68-1.07-1.15-2.49-1.43-4.32l-8.74.68c.09,2.44,1.21,6.64,4.25,9.94,2.88,3.12,6.75,4.71,11.51,4.71,7.3,0,12.06-5.86,13.15-7.91,1.19-2.25,1.8-4.75,1.8-7.42Z"></path><polygon class="cls-3" points="144.88 44.8 113.04 44.8 113.04 53.79 124.39 53.79 124.39 87.28 133.52 87.28 133.52 53.79 144.88 53.79 144.88 44.8"></polygon></g></g></svg> 